<svg id="instagram" xmlns="http://www.w3.org/2000/svg" width="26.103" height="26.103" viewBox="0 0 26.103 26.103">
  <path id="Caminho_1" data-name="Caminho 1" d="M3.824,26.1H22.279A3.828,3.828,0,0,0,26.1,22.279V3.824A3.828,3.828,0,0,0,22.279,0H3.824A3.828,3.828,0,0,0,0,3.824V22.279A3.828,3.828,0,0,0,3.824,26.1ZM1.529,3.824A2.3,2.3,0,0,1,3.824,1.529H22.279a2.3,2.3,0,0,1,2.294,2.294V22.279a2.3,2.3,0,0,1-2.294,2.294H3.824a2.3,2.3,0,0,1-2.294-2.294Zm0,0" fill="#39ff5a"/>
  <path id="Caminho_2" data-name="Caminho 2" d="M127.883,134.765A6.883,6.883,0,1,0,121,127.883,6.89,6.89,0,0,0,127.883,134.765Zm0-12.236a5.353,5.353,0,1,1-5.353,5.353A5.359,5.359,0,0,1,127.883,122.529Zm0,0" transform="translate(-114.831 -114.831)" fill="#39ff5a"/>
  <path id="Caminho_3" data-name="Caminho 3" d="M363.294,65.588A2.294,2.294,0,1,0,361,63.294,2.3,2.3,0,0,0,363.294,65.588Zm0-3.059a.765.765,0,1,1-.765.765A.766.766,0,0,1,363.294,62.529Zm0,0" transform="translate(-342.596 -57.89)" fill="#39ff5a"/>
</svg>
