<svg id="linkedin" xmlns="http://www.w3.org/2000/svg" width="26.103" height="26.103" viewBox="0 0 26.103 26.103">
  <path id="Caminho_4" data-name="Caminho 4" d="M22.279,0H3.824A3.828,3.828,0,0,0,0,3.824V22.279A3.828,3.828,0,0,0,3.824,26.1H22.279A3.828,3.828,0,0,0,26.1,22.279V3.824A3.828,3.828,0,0,0,22.279,0Zm2.294,22.279a2.3,2.3,0,0,1-2.294,2.294H3.824a2.3,2.3,0,0,1-2.294-2.294V3.824A2.3,2.3,0,0,1,3.824,1.529H22.279a2.3,2.3,0,0,1,2.294,2.294Zm0,0" fill="#39ff5a"/>
  <path id="Caminho_5" data-name="Caminho 5" d="M91,220.808h4.588V210H91Zm1.529-9.279h1.529v7.749H92.529Zm0,0" transform="translate(-86.361 -199.294)" fill="#39ff5a"/>
  <path id="Caminho_6" data-name="Caminho 6" d="M217.122,210h0a4.58,4.58,0,0,0-1.529.26V210H211v10.808h4.588v-5.455a.765.765,0,1,1,1.529,0v5.455h4.588v-5.981A4.806,4.806,0,0,0,217.122,210Zm3.055,9.279h-1.529v-3.926a2.294,2.294,0,0,0-4.588,0v3.926H212.53v-7.749h1.529v1.53l1.224-.919a3.032,3.032,0,0,1,1.835-.611h0a3.27,3.27,0,0,1,3.056,3.3Zm0,0" transform="translate(-200.243 -199.293)" fill="#39ff5a"/>
  <path id="Caminho_7" data-name="Caminho 7" d="M91,94.588h4.588V90H91Zm1.529-3.059h1.529v1.529H92.529Zm0,0" transform="translate(-86.361 -85.412)" fill="#39ff5a"/>
</svg>
